<?xml version="1.0" encoding="utf-8"?>
<!-- Generator: Adobe Illustrator 27.6.1, SVG Export Plug-In . SVG Version: 6.00 Build 0)  -->
<svg version="1.1" id="Layer_1" xmlns="http://www.w3.org/2000/svg" xmlns:xlink="http://www.w3.org/1999/xlink" x="0px" y="0px"
	 viewBox="0 0 157.6 157.7" style="enable-background:new 0 0 157.6 157.7;" xml:space="preserve">
<style type="text/css">
	.st0{opacity:0.34;}
	.st1{fill:#81C7BC;}
	.st2{fill:#6C3B5E;}
	.st3{fill:#9AD0C8;}
</style>
<g class="st0">
	<g>
		<defs>
			<polygon id="SVGID_1_" points="15.6,30.8 15.6,30.8 15.6,2.9 			"/>
		</defs>
		<clipPath id="SVGID_00000123430018214703583770000015548036754644458127_">
			<use xlink:href="#SVGID_1_"  style="overflow:visible;"/>
		</clipPath>
	</g>
</g>
<path class="st1" d="M148.3,41.5c0-17.8-14.4-32.2-32.2-32.2h-28l-9.3,9.3l-9.3-9.3H41.5C23.7,9.3,9.3,23.7,9.3,41.5v28.8l9.3,9.3
	l-9.3,9.3v27.4c0,17.8,14.4,32.2,32.2,32.2h28.1l9.3-9.3l9.3,9.3h28c17.8,0,32.2-14.4,32.2-32.2V88.8l-9.3-9.3l9.3-9.3V41.5z
	 M131.9,79.5l11.4,11.4c-1.6,2.7-3.4,5.3-5.4,7.8h-11.1L98,127.4v8.8c-3.1,2.1-6.2,4-9.2,5.5l-10-10l-10.5,10.5
	c-3.3-1.7-6.7-3.7-10.3-6.1v-8.8L29.3,98.7h-8c-2.1-3.1-4-6.2-5.5-9.2l10-10L15.2,69c1.7-3.3,3.7-6.7,6.1-10.2h8L58,30V19.7
	c2.8-2.3,5.8-4.3,8.8-6l11.9,11.9l11.4-11.4c2.7,1.6,5.3,3.3,7.8,5.4v9.1l1.2,1.2l26.8,27.6l1.1,1.2l10.8,0c2.3,2.8,4.3,5.8,6,8.8
	L131.9,79.5z"/>
<polygon class="st2" points="18.6,79.5 9.3,88.8 9.3,70.2 "/>
<polygon class="st2" points="78.8,139.1 88.1,148.4 69.5,148.4 "/>
<polygon class="st2" points="78.8,18.6 69.5,9.3 88.1,9.3 "/>
<path class="st2" d="M131.9,79.5l11.4,11.4c-1.6,2.7-3.4,5.3-5.4,7.8h-11.1L98,127.4v8.8c-3.1,2.1-6.2,4-9.2,5.5l-10-10l-10.5,10.5
	c-3.3-1.7-6.7-3.7-10.3-6.1v-8.8L29.3,98.7h-8c-2.1-3.1-4-6.2-5.5-9.2l10-10L15.2,69c1.7-3.3,3.7-6.7,6.1-10.2h8L58,30V19.7
	c2.8-2.3,5.8-4.3,8.8-6l11.9,11.9l11.4-11.4c2.7,1.6,5.3,3.3,7.8,5.4v9.1l1.2,1.2l26.8,27.6l1.1,1.2l10.8,0c2.3,2.8,4.3,5.8,6,8.8
	L131.9,79.5z"/>
<polygon class="st2" points="148.3,70.2 148.3,88.8 139,79.5 "/>
<path class="st3" d="M131.9,79.5l11.4,11.4c-1.6,2.7-3.4,5.3-5.4,7.8h-11.1L98,127.4v8.8c-3.1,2.1-6.2,4-9.2,5.5l-10-10l-10.5,10.5
	c-3.3-1.7-6.7-3.7-10.3-6.1v-8.8L29.3,98.7h-8c-2.1-3.1-4-6.2-5.5-9.2l10-10L15.2,69c1.7-3.3,3.7-6.7,6.1-10.2h8L58,30V19.7
	c2.8-2.3,5.8-4.3,8.8-6l11.9,11.9l11.4-11.4c2.7,1.6,5.3,3.3,7.8,5.4v9.1l1.2,1.2l26.8,27.6l1.1,1.2l10.8,0c2.3,2.8,4.3,5.8,6,8.8
	L131.9,79.5z"/>
<path class="st2" d="M53.9,82.3c0,2.2-0.4,4.3-1.1,6.2c-0.7,2.4-1.9,4-3.5,4.6C42.2,96,36,97.6,30.9,97.9c-0.4,0-0.9,0-1.3,0
	c-3,0-5.2-0.8-6.6-2.5c-1.8-2.2-2.1-5.7-0.9-10.7c0.5-2,1.4-3.1,2.6-3.1c0.7,0,1.6,0.3,2.4,1.6c0.1,0.1,1.2,0.7,8.5-0.2
	c5.2-0.6,9.3-1.6,12.4-3c-1.3-4.6-6.6-9.1-15.9-13.3c-0.9-0.4-1.7-1.2-1.7-2.8c0-0.7,0.1-1.5,0.5-2.5c0.4-1.2,0.9-2.3,1.3-3.3
	c0.4-1,0.9-1.9,1.3-2.7c0.5-1.1,1.2-1.7,2-2c0.7-0.2,1.5-0.1,2.3,0.3c8.5,5,13.7,12.2,15.5,21.4C53.7,77.8,54,80.2,53.9,82.3"/>
<path class="st2" d="M117.1,101.1L117.1,101.1l-4.9,7.8c-0.4,0.5-0.8,0.8-1.3,0.9c-0.1,0-0.2,0-0.3,0c-0.4,0-0.9-0.2-1.3-0.5
	c-0.7-0.5-3.1-2.1-7.2-4.5c-0.6-0.4-0.9-0.8-1-1.3c-0.1-0.5,0-1,0.4-1.5l4.9-7.3c0.6-0.8,1.5-1.1,2.5-0.8c1.4,0.5,2.8,1.1,4.1,1.9
	c1.3,0.8,2.5,1.6,3.6,2.6l0,0C117.4,99.2,117.5,100.1,117.1,101.1"/>
<path class="st2" d="M139.3,68.6c-0.4-0.6-1.1-0.9-2-0.9h-0.2c-10.4,0.5-20.1-1.1-28.7-4.7c-4.3-1.8-7.9-3.2-10.8-4.1
	c-2.9-0.9-5-1.3-6.2-1.3c-2.5,0-5.1,1.3-7.7,3.7c-2.6,2.5-4.2,5-4.9,7.5c-0.3,1.4-0.2,2.4,0.4,3c0.8,0.8,2.2,0.3,2.6,0.2
	c5.5-1.7,12.6-0.6,21.3,3c-6.1,2.6-13.5,4.3-22.1,4.9c0.2,2.6,0.3,8.4-0.7,13.7c3.9-0.2,8.3-1.6,13.2-4c2.7-1.3,5.6-2.6,8.6-3.8
	c3-1.2,6.3-2.3,9.6-3.4c3.3-1.1,6.8-1.7,10.3-1.9c3.6-0.2,7.3,0,11.2,0.7c1.2,0.1,2.1-0.6,2.9-2.2l2.7-6.3
	C139.8,70.8,139.9,69.5,139.3,68.6 M78.9,80c-0.6-5-1.7-8.5-3.4-10.6c-2.5-3.1-5.6-3.6-9.3-1.5c-3.2,2-5.6,6.5-7.2,13.3
	c-0.9,4.6,0.1,7.8,3,9.6c2.1,1.3,5.4,2.1,10.1,2.4c-2.3,5.1-7,9.8-13.9,14c-7.3,4.4-13.9,5.7-19.6,3.7c-2.2-0.9-3.1-0.2-3.5,0.6
	c-0.4,0.7-0.4,1.8,1.2,3.1c5.8,4.9,10.4,7.3,14.1,7.3c2.5,0,5.3-0.7,8.5-2.1c10.2-4.6,16.7-13.3,19.3-25.8c0-0.1,0-0.2,0-0.2
	C79.3,88.5,79.1,82.5,78.9,80L78.9,80z M65.4,79.6c-0.1-0.2-0.3-0.3,0.1-0.8c0.4-0.5,1.1-0.8,2-1c1.5,0,2.8,1.1,4,3.5
	C68.3,81.4,66.3,80.8,65.4,79.6"/>
<path class="st2" d="M106.3,58.6l0.2,0c2.7-0.3,5.8-2.2,5.8-2.2l0.2-0.2c4.3-2.5,7.7-5.4,10.2-8.5c-3.5-2-4.8-4.1-3.9-6.3
	c1.6-3.6,3.7-5.7,6.3-6.1c1.1-0.2,2,0.4,2.7,1.5c1.3,2.1,1.4,4.7,0.2,7.9c0.3,0.2,0.6,0.3,0.8,0.4c0.2,0.1,0.4,0.2,0.5,0.3
	c1,0.5,1.3,1.2,0.8,2.3l-0.9,1.7c-0.4,0.8-0.9,1-1.5,0.8c-0.7-0.3-1.4-0.6-2-0.9c-1.7,2.2-3.5,4.2-5.5,5.9c-1.7,1.5-3.5,2.7-5.4,3.8
	c-0.6,0.3-1.2,0.5-1.9,0.7C107.7,60.6,106.3,58.6,106.3,58.6 M124.8,43.2c0-0.9-0.2-1.5-0.5-1.8c-0.2-0.2-0.3-0.3-0.5-0.4
	c-0.2-0.1-0.3-0.2-0.5-0.3c-0.4-0.2-0.7,0-1.1,0.6C122.5,41.8,123.3,42.5,124.8,43.2"/>
<path class="st2" d="M65.3,54c0.9-3.7,1.8-7.6,2.9-11.3c0.5-1.6,1.4-3.4,2.7-4.2c1.2-0.8,3.4-1.1,4.7-0.6c1.2,0.5,2.2,2.2,2.7,3.6
	c0.3,0.7-0.6,2-1.3,2.6c-0.3,0.3-1.8-0.4-2.4-1c-1.8-1.9-2.6-2-3.5,0.5c-1.7,4.6-3,9.3-4.5,13.9c-0.6,1.7-1.2,3.4-1.8,5.1
	c-2-4.3-3.9-8.5-5.9-12.6c-1-2-2.1-3.8-4.7-2.1c-0.5,0.3-1.5,0.1-2-0.1c-1.7-0.8-2.1-3.8-1-6.1c0.9-2,2.6-3.3,4.5-2
	c2.2,1.4,4.4,3.3,5.7,5.5C63.2,47.8,64.1,51,65.3,54"/>
<path class="st2" d="M18.6,53.6c3.6-1.7,6.9-3.3,10.1-4.9c1.6-0.8,3.3-1.6,4.7-2.7c0.8-0.6,1.5-1.9,1.4-2.8c0-0.5-1.6-1.4-2.5-1.4
	c-3.8,0.1-7.5,0.5-11.3,0.9c-1,0.1-1.9,0.4-3,0.6c0.1-3.2,1.7-5.2,4.3-6.2c5.9-2.3,12-2.3,18.1-0.5c1.6,0.5,2.2,1.7,1.6,3.4
	C39.1,47.1,26.8,54.6,18.6,53.6"/>
<path class="st2" d="M88.5,94.2c-0.8,2.4-1.7,4.7-2.2,7.1c-0.8,3.5-1.6,7.1-1.8,10.7c0,0.6,0.2,1.2,0.4,1.8c0.7,1.6,2.7,2.2,4.2,1.4
	c0.6-0.3,1.1-0.6,1.7-1c0.5-0.3,0.9-1,1.6-1.4c0.2-0.1,0.4,0.1,0.3,0.3c-0.9,2.6-1.5,5.3-2.8,7.7c-0.7,1.2-2.6,2.5-3.9,2.5
	c-1.4,0-2.8-0.8-3.9-1.9c-0.6-0.6-0.8-2.5-0.9-3.3C80.9,109.3,84,101.5,88.5,94.2"/>
<rect x="72.2" y="2.7" transform="matrix(0.7069 -0.7073 0.7073 0.7069 16.5252 58.4587)" class="st3" width="13.1" height="13.1"/>
<rect x="72.2" y="141.8" transform="matrix(0.7069 -0.7073 0.7073 0.7069 -81.8687 99.2302)" class="st3" width="13.1" height="13.1"/>
<rect x="141.7" y="72.9" transform="matrix(0.7069 -0.7073 0.7073 0.7069 -12.7804 128.1804)" class="st3" width="13.1" height="13.1"/>
<rect x="2.7" y="72.9" transform="matrix(0.7069 -0.7073 0.7073 0.7069 -53.5151 29.8756)" class="st3" width="13.1" height="13.1"/>
</svg>
