<?xml version="1.0" encoding="utf-8"?>
<!-- Generator: Adobe Illustrator 27.6.1, SVG Export Plug-In . SVG Version: 6.00 Build 0)  -->
<svg version="1.1" id="Layer_1" xmlns="http://www.w3.org/2000/svg" xmlns:xlink="http://www.w3.org/1999/xlink" x="0px" y="0px"
	 viewBox="0 0 157.6 157.7" style="enable-background:new 0 0 157.6 157.7;" xml:space="preserve">
<style type="text/css">
	.st0{fill:#B5B5B6;}
</style>
<path class="st0" d="M123.9,41.3c-0.2-0.1-0.3-0.3-0.5-0.4c-0.2-0.1-0.3-0.2-0.5-0.3c-0.3-0.2-0.7,0-1.1,0.6
	c0.2,0.6,1.1,1.2,2.5,1.9C124.3,42.3,124.2,41.7,123.9,41.3 M123.9,41.3c-0.2-0.1-0.3-0.3-0.5-0.4c-0.2-0.1-0.3-0.2-0.5-0.3
	c-0.3-0.2-0.7,0-1.1,0.6c0.2,0.6,1.1,1.2,2.5,1.9C124.3,42.3,124.2,41.7,123.9,41.3 M123.9,41.3c-0.2-0.1-0.3-0.3-0.5-0.4
	c-0.2-0.1-0.3-0.2-0.5-0.3c-0.3-0.2-0.7,0-1.1,0.6c0.2,0.6,1.1,1.2,2.5,1.9C124.3,42.3,124.2,41.7,123.9,41.3 M123.9,41.3
	c-0.2-0.1-0.3-0.3-0.5-0.4c-0.2-0.1-0.3-0.2-0.5-0.3c-0.3-0.2-0.7,0-1.1,0.6c0.2,0.6,1.1,1.2,2.5,1.9
	C124.3,42.3,124.2,41.7,123.9,41.3 M123.9,41.3c-0.2-0.1-0.3-0.3-0.5-0.4c-0.2-0.1-0.3-0.2-0.5-0.3c-0.3-0.2-0.7,0-1.1,0.6
	c0.2,0.6,1.1,1.2,2.5,1.9C124.3,42.3,124.2,41.7,123.9,41.3 M123.9,41.3c-0.2-0.1-0.3-0.3-0.5-0.4c-0.2-0.1-0.3-0.2-0.5-0.3
	c-0.3-0.2-0.7,0-1.1,0.6c0.2,0.6,1.1,1.2,2.5,1.9C124.3,42.3,124.2,41.7,123.9,41.3 M123.9,41.3c-0.2-0.1-0.3-0.3-0.5-0.4
	c-0.2-0.1-0.3-0.2-0.5-0.3c-0.3-0.2-0.7,0-1.1,0.6c0.2,0.6,1.1,1.2,2.5,1.9C124.3,42.3,124.2,41.7,123.9,41.3 M123.9,41.3
	c-0.2-0.1-0.3-0.3-0.5-0.4c-0.2-0.1-0.3-0.2-0.5-0.3c-0.3-0.2-0.7,0-1.1,0.6c0.2,0.6,1.1,1.2,2.5,1.9
	C124.3,42.3,124.2,41.7,123.9,41.3 M147.9,41.5c0-17.8-14.4-32.2-32.2-32.2h-28l-9.3,9.3l-9.3-9.3H41C23.3,9.3,8.9,23.7,8.9,41.5
	v28.8l9.3,9.3l-9.3,9.3v27.4c0,17.8,14.4,32.2,32.2,32.2h28.1l9.3-9.3l9.3,9.3h28c17.8,0,32.2-14.4,32.2-32.2V88.8l-9.3-9.3l9.3-9.3
	V41.5z M21.7,37.1c5.9-2.4,12-2.3,18.1-0.5c1.6,0.5,2.2,1.7,1.6,3.4c-2.7,7.1-15,14.6-23.2,13.6c3.6-1.7,6.9-3.3,10.1-4.9
	c1.6-0.8,3.3-1.6,4.7-2.7c0.8-0.6,1.5-1.9,1.4-2.8c0-0.5-1.6-1.4-2.5-1.4c-3.8,0.1-7.5,0.5-11.3,0.9c-1,0.1-1.9,0.4-3,0.6
	C17.6,40.1,19.2,38.1,21.7,37.1 M138.7,72.3c-0.1,0.1-0.1,0.3-0.2,0.4l-2.7,6.3c-0.7,1.4-1.6,2.2-2.6,2.2l9.7,9.7
	c-1.6,2.7-3.4,5.3-5.4,7.8h-11.1l-28.8,28.8v8.8c-3.1,2.1-6.2,4-9.2,5.5l-10-9.9l-10.5,10.5c-3.3-1.7-6.7-3.7-10.3-6.1v-8.8
	l-5.8-5.8c-0.7,0.1-1.3,0.1-1.9,0.1c-3.7,0-8.3-2.4-14.1-7.2c-1.6-1.3-1.6-2.4-1.2-3.1c0.4-0.7,1.3-1.4,3.5-0.6
	c1.2,0.4,2.5,0.7,3.8,0.8l-13-13.1h-8c-2.1-3.1-4-6.2-5.5-9.2l10-10L14.8,69c1.7-3.3,3.7-6.8,6.1-10.2h8L57.6,30V19.7
	c2.8-2.3,5.8-4.3,8.8-6l11.9,11.9l11.4-11.4c2.7,1.6,5.3,3.3,7.8,5.4v9.1l1.2,1.2l20.5,21.1c1.2-1.1,2.2-2.2,3.2-3.3
	c-3.5-2-4.8-4.1-3.9-6.3c1.6-3.6,3.7-5.7,6.3-6.1c1.1-0.1,2,0.4,2.7,1.5c1.3,2.1,1.4,4.7,0.2,7.9c0.3,0.2,0.5,0.3,0.8,0.4
	c0.2,0.1,0.4,0.2,0.5,0.3c1,0.5,1.3,1.2,0.8,2.3l-0.9,1.7c-0.4,0.8-0.9,1-1.5,0.8c-0.7-0.2-1.4-0.5-2-0.9c-1.2,1.5-2.4,2.9-3.7,4.2
	l3.9,4l1.1,1.2l10.8,0c2.3,2.8,4.3,5.8,6,8.8L138.7,72.3z M123.9,41.3c-0.2-0.1-0.3-0.3-0.5-0.4c-0.2-0.1-0.3-0.2-0.5-0.3
	c-0.3-0.2-0.7,0-1.1,0.6c0.2,0.6,1.1,1.2,2.5,1.9C124.3,42.3,124.2,41.7,123.9,41.3 M123.9,41.3c-0.2-0.1-0.3-0.3-0.5-0.4
	c-0.2-0.1-0.3-0.2-0.5-0.3c-0.3-0.2-0.7,0-1.1,0.6c0.2,0.6,1.1,1.2,2.5,1.9C124.3,42.3,124.2,41.7,123.9,41.3 M123.9,41.3
	c-0.2-0.1-0.3-0.3-0.5-0.4c-0.2-0.1-0.3-0.2-0.5-0.3c-0.3-0.2-0.7,0-1.1,0.6c0.2,0.6,1.1,1.2,2.5,1.9
	C124.3,42.3,124.2,41.7,123.9,41.3 M123.9,41.3c-0.2-0.1-0.3-0.3-0.5-0.4c-0.2-0.1-0.3-0.2-0.5-0.3c-0.3-0.2-0.7,0-1.1,0.6
	c0.2,0.6,1.1,1.2,2.5,1.9C124.3,42.3,124.2,41.7,123.9,41.3 M123.9,41.3c-0.2-0.1-0.3-0.3-0.5-0.4c-0.2-0.1-0.3-0.2-0.5-0.3
	c-0.3-0.2-0.7,0-1.1,0.6c0.2,0.6,1.1,1.2,2.5,1.9C124.3,42.3,124.2,41.7,123.9,41.3 M123.9,41.3c-0.2-0.1-0.3-0.3-0.5-0.4
	c-0.2-0.1-0.3-0.2-0.5-0.3c-0.3-0.2-0.7,0-1.1,0.6c0.2,0.6,1.1,1.2,2.5,1.9C124.3,42.3,124.2,41.7,123.9,41.3 M123.9,41.3
	c-0.2-0.1-0.3-0.3-0.5-0.4c-0.2-0.1-0.3-0.2-0.5-0.3c-0.3-0.2-0.7,0-1.1,0.6c0.2,0.6,1.1,1.2,2.5,1.9
	C124.3,42.3,124.2,41.7,123.9,41.3 M123.9,41.3c-0.2-0.1-0.3-0.3-0.5-0.4c-0.2-0.1-0.3-0.2-0.5-0.3c-0.3-0.2-0.7,0-1.1,0.6
	c0.2,0.6,1.1,1.2,2.5,1.9C124.3,42.3,124.2,41.7,123.9,41.3 M123.9,41.3c-0.2-0.1-0.3-0.3-0.5-0.4c-0.2-0.1-0.3-0.2-0.5-0.3
	c-0.3-0.2-0.7,0-1.1,0.6c0.2,0.6,1.1,1.2,2.5,1.9C124.3,42.3,124.2,41.7,123.9,41.3"/>
<polygon class="st0" points="18.2,79.5 8.9,88.8 8.9,70.2 "/>
<polygon class="st0" points="78.4,139.1 87.7,148.4 69.1,148.4 "/>
<polygon class="st0" points="78.4,18.6 69.1,9.3 87.7,9.3 "/>
<path class="st0" d="M132.9,81.2c-3.9-0.7-7.7-0.9-11.2-0.6c-3.6,0.2-7,0.9-10.3,1.9c-3.4,1.1-6.6,2.2-9.6,3.4
	c-3,1.2-5.9,2.4-8.6,3.8c-4.9,2.5-9.3,3.8-13.2,4c1-5.3,0.9-11.1,0.7-13.7c8.6-0.7,16-2.3,22.1-4.9c-8.7-3.7-15.8-4.7-21.3-3
	c-0.4,0.1-1.7,0.6-2.6-0.2c-0.6-0.6-0.7-1.5-0.4-3c0.6-2.5,2.3-5,4.9-7.4c2.6-2.5,5.2-3.7,7.7-3.7c1.2,0,3.3,0.4,6.2,1.4
	c2.8,0.9,6.5,2.3,10.8,4.1c8.6,3.6,18.3,5.1,28.7,4.7h0.2c0.9,0,1.6,0.3,2,0.9c0.5,0.8,0.5,2-0.3,3.7l4.8-4.8
	c-1.7-3.1-3.7-6.1-6-8.8l-10.8,0l-1.1-1.2l-3.9-4c-0.6,0.6-1.2,1.1-1.8,1.6c-1.7,1.5-3.5,2.7-5.4,3.8c-0.6,0.3-1.2,0.5-1.9,0.7
	c-5.2,1-6.6-1-6.6-1l0.2,0c2.7-0.3,5.8-2.2,5.8-2.2l0.2-0.1c2.7-1.6,5-3.3,7-5.1L98.7,30l-1.2-1.2v-9.1c-2.5-2.1-5.1-3.8-7.8-5.4
	L78.4,25.6L66.5,13.7c-3.1,1.7-6.1,3.7-8.8,6V30L28.8,58.8h-8c-2.4,3.5-4.4,6.9-6.1,10.2l10.5,10.5l-10,10c1.6,3,3.4,6.1,5.5,9.2h8
	l13.1,13c4.8,0.5,10.1-1,15.8-4.5c6.9-4.2,11.6-8.9,14-14c-4.7-0.3-8-1.1-10.1-2.4c-2.9-1.8-3.9-5-3-9.6c1.6-6.9,4-11.4,7.2-13.3
	c3.6-2.1,6.8-1.6,9.3,1.5c1.6,2.1,2.8,5.6,3.4,10.6h0c0.1,2.6,0.3,8.5-0.8,13.7c0,0.1,0,0.1,0,0.2c-2.6,12.5-9.1,21.2-19.3,25.8
	c-2.4,1.1-4.5,1.7-6.6,2l5.8,5.8v8.8c3.5,2.4,7,4.4,10.3,6.1l10.5-10.5l10,9.9c3-1.6,6.1-3.4,9.2-5.5v-8.8l28.8-28.8h11.1
	c2-2.5,3.8-5.1,5.4-7.8l-9.7-9.7C133.1,81.2,133,81.2,132.9,81.2 M52.4,88.5c-0.7,2.4-1.9,4-3.5,4.6c-7.2,2.9-13.4,4.5-18.4,4.8
	c-0.4,0-0.9,0-1.3,0c-3,0-5.2-0.8-6.6-2.5c-1.8-2.2-2.1-5.7-0.9-10.7c0.5-2,1.4-3.1,2.6-3.1c0.7,0,1.6,0.3,2.4,1.6
	c0.1,0.1,1.2,0.7,8.5-0.2c5.2-0.6,9.3-1.6,12.4-3C46.3,75.5,41,71,31.7,66.9C30.8,66.5,30,65.7,30,64c0-0.7,0.1-1.5,0.5-2.5
	c0.4-1.2,0.9-2.3,1.3-3.2c0.4-1,0.9-1.9,1.3-2.7c0.5-1.1,1.2-1.7,2-2c0.7-0.2,1.5-0.1,2.3,0.3c8.5,5,13.7,12.2,15.5,21.4
	c0.5,2.5,0.7,4.8,0.7,7C53.5,84.5,53.1,86.6,52.4,88.5 M76.6,44.1c-0.3,0.3-1.8-0.4-2.4-1c-1.8-1.9-2.6-2-3.5,0.5
	c-1.7,4.6-3,9.3-4.5,13.9c-0.5,1.7-1.2,3.4-1.8,5.1c-2-4.3-3.9-8.5-5.9-12.6c-1-2-2.1-3.8-4.8-2.1c-0.5,0.3-1.5,0.1-2-0.1
	c-1.7-0.8-2.1-3.8-1-6.1c0.9-2,2.6-3.3,4.5-2c2.2,1.4,4.4,3.3,5.7,5.5c1.7,2.7,2.6,5.9,3.8,8.9c0.9-3.7,1.8-7.6,2.9-11.3
	c0.5-1.6,1.4-3.4,2.7-4.2c1.2-0.8,3.4-1.1,4.7-0.6c1.2,0.5,2.2,2.2,2.7,3.6C78.2,42.1,77.3,43.5,76.6,44.1 M92.3,113.1
	c-0.9,2.6-1.5,5.3-2.8,7.7c-0.7,1.2-2.6,2.6-3.9,2.5c-1.4,0-2.8-0.8-3.9-1.9c-0.6-0.6-0.9-2.5-0.9-3.3c-0.3-8.7,2.8-16.5,7.2-23.8
	c-0.8,2.4-1.7,4.7-2.2,7.1c-0.8,3.5-1.6,7.1-1.8,10.7c0,0.6,0.2,1.2,0.5,1.8c0.7,1.6,2.7,2.2,4.2,1.4c0.6-0.3,1.1-0.6,1.7-1
	c0.5-0.3,0.9-1,1.6-1.4C92.2,112.8,92.4,112.9,92.3,113.1 M116.6,101.1L116.6,101.1l-4.9,7.8c-0.4,0.5-0.8,0.8-1.3,0.9
	c-0.1,0-0.2,0-0.3,0c-0.4,0-0.9-0.2-1.3-0.5c-0.7-0.5-3.1-2-7.2-4.5c-0.6-0.4-0.9-0.8-1-1.3c-0.1-0.5,0-1,0.4-1.5l4.9-7.3
	c0.6-0.8,1.5-1.1,2.5-0.8c1.4,0.5,2.8,1.1,4.1,1.9c1.3,0.8,2.5,1.6,3.6,2.6l0,0C117,99.2,117.1,100.1,116.6,101.1 M67,77.9
	c-0.9,0.2-1.6,0.5-2,1c-0.4,0.5-0.2,0.7-0.1,0.8c0.9,1.2,2.9,1.8,6,1.7C69.8,79,68.5,77.8,67,77.9"/>
<polygon class="st0" points="147.9,70.2 147.9,88.8 138.6,79.5 "/>
<rect x="71.8" y="2.7" transform="matrix(0.7069 -0.7073 0.7073 0.7069 16.4058 58.1649)" class="st0" width="13.1" height="13.1"/>
<rect x="71.8" y="141.8" transform="matrix(0.7069 -0.7073 0.7073 0.7069 -81.9881 98.9364)" class="st0" width="13.1" height="13.1"/>
<rect x="141.3" y="72.9" transform="matrix(0.7069 -0.7073 0.7073 0.7069 -12.8997 127.8866)" class="st0" width="13.1" height="13.1"/>
<rect x="2.3" y="72.9" transform="matrix(0.7069 -0.7073 0.7073 0.7069 -53.6344 29.5817)" class="st0" width="13.1" height="13.1"/>
</svg>
