<?xml version="1.0" encoding="utf-8"?>
<!-- Generator: Adobe Illustrator 27.6.1, SVG Export Plug-In . SVG Version: 6.00 Build 0)  -->
<svg version="1.1" id="Layer_1" xmlns="http://www.w3.org/2000/svg" xmlns:xlink="http://www.w3.org/1999/xlink" x="0px" y="0px"
	 viewBox="0 0 157.5 157.6" style="enable-background:new 0 0 157.5 157.6;" xml:space="preserve">
<style type="text/css">
	.st0{fill:#B5B5B6;}
</style>
<g>
	<path class="st0" d="M124.7,43.1c0-0.8-0.1-1.4-0.4-1.8c-0.2-0.1-0.3-0.3-0.5-0.4c-0.2-0.1-0.3-0.2-0.5-0.3c-0.3-0.2-0.7,0-1.1,0.6
		C122.4,41.8,123.3,42.4,124.7,43.1z"/>
	<path class="st0" d="M67.4,77.9c-0.9,0.2-1.6,0.5-2,1s-0.2,0.7-0.1,0.8c0.9,1.2,2.9,1.8,6,1.7C70.2,79,68.9,77.8,67.4,77.9z"/>
	<path class="st0" d="M148.3,88.6l9.2-9.2l-9.1-9.3V41.5h-0.1c0-17.8-14.4-32.2-32.2-32.2h-28H88l0,0L78.8,0l-9.3,9.3l0,0H41.4
		C23.7,9.3,9.3,23.7,9.3,41.5v28.7v0.1v0l-0.1-0.1L0,79.5L9.3,89v27.3c0,17.8,14.4,32.2,32.2,32.2h28.1l9.2,9.2l9.2-9.3h0.1l0.1,0.1
		h28c17.8,0,32.2-14.4,32.2-32.2V88.8L148.3,88.6L148.3,88.6z M133.3,81.2c-3.9-0.7-7.7-0.9-11.2-0.6c-3.6,0.2-7,0.9-10.3,1.9
		c-3.4,1.1-6.6,2.2-9.6,3.4s-5.9,2.4-8.6,3.8c-4.9,2.5-9.3,3.8-13.2,4c1-5.3,0.9-11.1,0.7-13.7c8.6-0.7,16-2.3,22.1-4.9
		c-8.7-3.7-15.8-4.7-21.3-3c-0.4,0.1-1.7,0.6-2.6-0.2c-0.6-0.6-0.7-1.5-0.4-3c0.6-2.5,2.3-5,4.9-7.4c2.6-2.5,5.2-3.7,7.7-3.7
		c1.2,0,3.3,0.4,6.2,1.4c2.8,0.9,6.5,2.3,10.8,4.1c8.6,3.6,18.3,5.1,28.7,4.7h0.2c0.9,0,1.6,0.3,2,0.9c0.4,0.7,0.5,1.8-0.1,3.2
		l-0.2,0.2c-0.1,0.1-0.1,0.3-0.2,0.4l-2.7,6.3c-0.7,1.4-1.7,2.2-2.7,2.2C133.5,81.2,133.4,81.2,133.3,81.2z M101.4,102l4.9-7.3
		c0.6-0.8,1.5-1.1,2.5-0.8c1.4,0.5,2.8,1.1,4.1,1.9c1.3,0.8,2.5,1.6,3.6,2.6c0.9,0.8,1,1.7,0.5,2.7l-4.9,7.8
		c-0.4,0.5-0.8,0.8-1.3,0.9c-0.1,0-0.2,0-0.3,0c-0.4,0-0.9-0.2-1.3-0.5c-0.7-0.5-3.1-2-7.2-4.5c-0.6-0.4-0.9-0.8-1-1.3
		C100.9,103,101,102.5,101.4,102z M84.9,113.9c0.7,1.6,2.7,2.2,4.2,1.4c0.6-0.3,1.1-0.6,1.7-1c0.5-0.3,0.9-1,1.6-1.4
		c0.2-0.1,0.4,0,0.3,0.2c-0.9,2.6-1.5,5.3-2.8,7.7c-0.7,1.2-2.6,2.6-3.9,2.5c-1.4,0-2.8-0.8-3.9-1.9c-0.6-0.6-0.9-2.5-0.9-3.3
		c-0.3-8.7,2.8-16.5,7.2-23.8c-0.8,2.4-1.7,4.7-2.2,7.1c-0.8,3.5-1.6,7.1-1.8,10.7C84.4,112.7,84.6,113.3,84.9,113.9z M30.9,97.9
		c-0.4,0-0.9,0-1.3,0c-3,0-5.2-0.8-6.6-2.5c-1.8-2.2-2.1-5.7-0.9-10.7c0.5-2,1.4-3.1,2.6-3.1c0.7,0,1.6,0.3,2.4,1.6
		c0.1,0.1,1.2,0.7,8.5-0.2c5.2-0.6,9.3-1.6,12.4-3c-1.3-4.5-6.6-9-15.9-13.1c-0.9-0.4-1.7-1.2-1.7-2.9c0-0.7,0.1-1.5,0.5-2.5
		c0.4-1.2,0.9-2.3,1.3-3.2c0.4-1,0.9-1.9,1.3-2.7c0.5-1.1,1.2-1.7,2-2c0.7-0.2,1.5-0.1,2.3,0.3c8.5,5,13.7,12.2,15.5,21.4
		c0.5,2.5,0.7,4.8,0.7,7c-0.1,2.2-0.5,4.3-1.2,6.2c-0.7,2.4-1.9,4-3.5,4.6C42.1,96,35.9,97.6,30.9,97.9z M52.1,47.8
		c-1.7-0.8-2.1-3.8-1-6.1c0.9-2,2.6-3.3,4.5-2c2.2,1.4,4.4,3.3,5.7,5.5c1.7,2.7,2.6,5.9,3.8,8.9c0.9-3.7,1.8-7.6,2.9-11.3
		c0.5-1.6,1.4-3.4,2.7-4.2c1.2-0.8,3.4-1.1,4.7-0.6c1.2,0.5,2.2,2.2,2.7,3.6c0.5,0.5-0.4,1.9-1.1,2.5c-0.3,0.3-1.8-0.4-2.4-1
		c-1.8-1.9-2.6-2-3.5,0.5c-1.7,4.6-3,9.3-4.5,13.9c-0.5,1.7-1.2,3.4-1.8,5.1c-2-4.3-3.9-8.5-5.9-12.6c-1-2-2.1-3.8-4.8-2.1
		C53.6,48.2,52.6,48,52.1,47.8z M143.8,67.6c-0.1-0.1-0.1-0.2-0.2-0.4C143.7,67.4,143.8,67.5,143.8,67.6L143.8,67.6z M118.9,41.4
		c1.6-3.6,3.7-5.7,6.3-6.1c1.1-0.1,2,0.4,2.7,1.5c1.3,2.1,1.4,4.7,0.2,7.9c0.3,0.2,0.5,0.3,0.8,0.4c0.2,0.1,0.4,0.2,0.5,0.3
		c1,0.5,1.3,1.2,0.8,2.3l-0.9,1.7c-0.4,0.8-0.9,1-1.5,0.8c-0.7-0.2-1.4-0.5-2-0.9c-1.2,1.5-2.4,3.2-3.7,4.5
		c-0.6,0.6-1.2,1.1-1.8,1.6c-1.7,1.5-3.5,2.7-5.4,3.8c-0.6,0.3-1.2,0.5-1.9,0.7c-5.2,1-6.6-1-6.6-1h0.2c2.7-0.3,5.8-2.2,5.8-2.2
		l0.2-0.1c2.7-1.6,5-3.3,7-5.1c1.2-1.1,2.2-2.7,3.2-3.8C119.3,45.7,118,43.6,118.9,41.4z M22.1,37.1c5.9-2.4,12-2.3,18.1-0.5
		c1.6,0.5,2.2,1.7,1.6,3.4c-2.7,7.1-15,14.6-23.2,13.6c3.6-1.7,6.9-3.3,10.1-4.9c1.6-0.8,3.3-1.6,4.7-2.7c0.8-0.6,1.5-1.9,1.4-2.8
		c0-0.5-1.6-1.4-2.5-1.4c-3.8,0.1-7.5,0.5-11.3,0.9c-1,0.1-1.9,0.4-3,0.6C18,40.1,19.6,38.1,22.1,37.1z M18.6,79.5L18.6,79.5
		L18.6,79.5L18.6,79.5L18.6,79.5z M36.2,114.6c-1.6-1.3-1.6-2.4-1.2-3.1c0.4-0.7,1.3-1.4,3.5-0.6c1.2,0.4,2.4,0.7,3.7,0.8l0,0
		c4.8,0.5,10.1-1,15.8-4.5c6.9-4.2,11.6-8.9,14-14c-4.7-0.3-8-1.1-10.1-2.4c-2.9-1.8-3.9-5-3-9.6c1.6-6.9,4-11.4,7.2-13.3
		c3.6-2.1,6.8-1.6,9.3,1.5C77,71.5,78.2,75,78.8,80c0.1,2.6,0.3,8.5-0.8,13.7c0,0.1,0,0.1,0,0.2c-2.6,12.5-9.1,21.2-19.3,25.8
		c-2.4,1.1-4.5,1.7-6.6,2l0,0c-0.7,0.1-1.2,0.1-1.8,0.1C46.6,121.8,42,119.4,36.2,114.6z M94.5,138.5c1.1-0.7,2.3-1.4,3.4-2.2
		C96.8,137.1,95.6,137.8,94.5,138.5z"/>
</g>
</svg>
